<?xml version="1.0" encoding="UTF-8" standalone="no"?>
<!-- Created with Inkscape (http://www.inkscape.org/) -->

<svg
   width="127.99999"
   height="127.99999"
   viewBox="0 0 33.866664 33.866664"
   version="1.1"
   id="svg1"
   xmlns="http://www.w3.org/2000/svg"
   xmlns:svg="http://www.w3.org/2000/svg">
  <defs
     id="defs1" />
  <g
     id="g10"
     style="display:inline"
     transform="translate(51.696243,-2.8508921)">
    <circle
       style="display:inline;fill:#5352ed;fill-opacity:1;stroke:none;stroke-width:0.273311;stroke-opacity:1"
       id="circle9"
       cx="-58.773788"
       cy="33.595234"
       r="16.933332"
       transform="translate(24.010878,-13.811007)" />
    <g
       id="g8"
       transform="matrix(1.1403354,0,0,1.190602,-21.442278,21.780011)"
       style="display:inline;fill:#ffffff">
      <path
         style="fill:#ffffff;stroke-width:1.61876"
         d="M -10.611342,6.9905525 V 0.45885849 c 0,-0.349652 0.0257,-0.699304 0.129521,-0.948588 0.280028,-0.69768899 0.9194532,-1.42127589 1.9943132,-1.42127589 1.406702,0 1.968409,1.07162389 1.968409,2.64505789 V 6.9905525 h 3.886643 V 0.28241649 c 0,-3.59364489 -1.916613,-5.26420389 -4.474254,-5.26420389 -2.062298,0 -2.9866092,1.133129 -3.5046132,1.93118 v 0.04038 h -0.0257 l 0.0257,-0.04038 v -1.65437 h -3.885022 c 0.04833,1.097515 0,11.6955299 0,11.6955299 z"
         id="path6" />
      <path
         style="fill:#ffffff;stroke-width:1.61876"
         d="m -18.556211,-6.3026944 c 1.354906,0 2.19828,-0.896792 2.19828,-2.020211 -0.02447,-1.147703 -0.841759,-2.0202106 -2.172376,-2.0202106 -1.330622,0 -2.199894,0.8741296 -2.199894,2.0202106 0,1.123419 0.843374,2.020211 2.148092,2.020211 z"
         id="path7" />
      <path
         style="fill:#ffffff;stroke-width:1.61876"
         d="M -16.6137,6.9905525 V -4.7049774 h -3.886637 V 6.9905525 Z"
         id="path8" />
    </g>
  </g>
</svg>
