<?xml version="1.0" encoding="UTF-8" standalone="no"?>
<!-- Created with Inkscape (http://www.inkscape.org/) -->

<svg
   width="127.99999"
   height="127.99999"
   viewBox="0 0 33.866664 33.866664"
   version="1.1"
   id="svg1"
   xmlns="http://www.w3.org/2000/svg"
   xmlns:svg="http://www.w3.org/2000/svg">
  <defs
     id="defs1" />
  <g
     id="g12"
     style="display:inline">
    <path
       id="circle5"
       style="display:inline;fill:#ffffff;fill-opacity:1;stroke-width:0.273311"
       d="M 16.933333,0 A 16.933332,16.933332 0 0 0 7.0000005e-8,16.933333 16.933332,16.933332 0 0 0 16.933333,33.866666 16.933332,16.933332 0 0 0 33.866666,16.933333 16.933332,16.933332 0 0 0 16.933333,0 Z m 0,1.0583337 a 15.875,15.875 0 0 1 15.875,15.8749993 15.875,15.875 0 0 1 -15.875,15.875 15.875,15.875 0 0 1 -15.874999,-15.875 15.875,15.875 0 0 1 15.874999,-15.8749993 z" />
    <path
       d="m 7.351929,24.072035 5.988378,-7.138703 m 13.174427,7.138703 -5.988375,-7.138703 M 6.154255,12.174196 14.807459,17.90491 c 0.768309,0.50887 1.152404,0.763365 1.567637,0.862118 0.366968,0.08745 0.749506,0.08745 1.116475,0 0.415233,-0.09875 0.799328,-0.353248 1.567636,-0.862118 l 8.653204,-5.730714 M 9.986815,25.261821 h 13.893034 c 1.341518,0 2.012336,0 2.524702,-0.259373 0.450684,-0.228084 0.817173,-0.592157 1.046768,-1.039873 0.261092,-0.508989 0.261092,-1.175387 0.261092,-2.508065 v -9.042357 c 0,-1.332677 0,-1.999028 -0.261092,-2.5080403 -0.229595,-0.447752 -0.596084,-0.811778 -1.046768,-1.039907 -0.512366,-0.259361 -1.183184,-0.259361 -2.524702,-0.259361 H 9.986815 c -1.341515,0 -2.012285,0 -2.524675,0.259361 -0.450721,0.228129 -0.817161,0.592155 -1.046805,1.039907 -0.26108,0.5090123 -0.26108,1.1753513 -0.26108,2.5080403 v 9.042357 c 0,1.332678 0,1.999076 0.26108,2.508065 0.229644,0.447716 0.596084,0.811789 1.046805,1.039873 0.51239,0.259373 1.183147,0.259373 2.524675,0.259373 z"
       stroke="#000000"
       stroke-width="2.38745"
       stroke-linecap="round"
       stroke-linejoin="round"
       id="path1-2"
       style="fill:none;stroke:#ffffff;stroke-width:1.5875;stroke-dasharray:none;stroke-opacity:1" />
  </g>
</svg>
