<?xml version="1.0" encoding="UTF-8" standalone="no"?>
<!-- Created with Inkscape (http://www.inkscape.org/) -->

<svg
   width="127.99999"
   height="127.99999"
   viewBox="0 0 33.866664 33.866664"
   version="1.1"
   id="svg1"
   xmlns="http://www.w3.org/2000/svg"
   xmlns:svg="http://www.w3.org/2000/svg">
  <defs
     id="defs1" />
  <g
     id="g13"
     style="display:inline">
    <g
       id="g6"
       style="display:inline">
      <g
         id="g14"
         transform="translate(-30.649709,-31.768983)">
        <circle
           style="display:inline;fill:#d63031;fill-opacity:1;stroke-width:0.273311"
           id="circle11"
           cx="47.583042"
           cy="48.702316"
           r="16.933332" />
        <path
           d="m 38.001638,55.84102 5.988378,-7.138703 m 13.174427,7.138703 -5.988375,-7.138703 m -14.372104,-4.759136 8.653204,5.730714 c 0.768309,0.50887 1.152404,0.763365 1.567637,0.862118 0.366968,0.08745 0.749506,0.08745 1.116475,0 0.415233,-0.09875 0.799328,-0.353248 1.567636,-0.862118 L 58.36212,43.943181 M 40.636524,57.030806 h 13.893034 c 1.341518,0 2.012336,0 2.524702,-0.259373 0.450684,-0.228084 0.817173,-0.592157 1.046768,-1.039873 0.261092,-0.508989 0.261092,-1.175387 0.261092,-2.508065 v -9.042357 c 0,-1.332677 0,-1.999028 -0.261092,-2.508041 C 57.871433,41.225345 57.504944,40.861319 57.05426,40.63319 56.541894,40.373829 55.871076,40.373829 54.529558,40.373829 H 40.636524 c -1.341515,0 -2.012285,0 -2.524675,0.259361 -0.450721,0.228129 -0.817161,0.592155 -1.046805,1.039907 -0.26108,0.509013 -0.26108,1.175352 -0.26108,2.508041 v 9.042357 c 0,1.332678 0,1.999076 0.26108,2.508065 0.229644,0.447716 0.596084,0.811789 1.046805,1.039873 0.51239,0.259373 1.183147,0.259373 2.524675,0.259373 z"
           stroke="#000000"
           stroke-width="2.38745"
           stroke-linecap="round"
           stroke-linejoin="round"
           id="path12"
           style="fill:none;stroke:#ffffff;stroke-width:1.5875;stroke-dasharray:none;stroke-opacity:1" />
      </g>
    </g>
  </g>
</svg>
