<?xml version="1.0" encoding="UTF-8" standalone="no"?>
<!-- Created with Inkscape (http://www.inkscape.org/) -->

<svg
   width="128.00002"
   height="127.99999"
   viewBox="0 0 33.86667 33.866664"
   version="1.1"
   id="svg1"
   xmlns="http://www.w3.org/2000/svg"
   xmlns:svg="http://www.w3.org/2000/svg">
  <defs
     id="defs1" />
  <g
     id="g21"
     transform="translate(-42.597916,-49.144804)">
    <path
       id="circle14"
       style="display:inline;fill:#ffffff;stroke-width:0.273311"
       d="M 59.531249,49.144803 A 16.933332,16.933332 0 0 0 42.597916,66.078136 16.933332,16.933332 0 0 0 59.531249,83.011469 16.933332,16.933332 0 0 0 76.464582,66.078136 16.933332,16.933332 0 0 0 59.531249,49.144803 Z m 0,1.058333 a 15.875,15.875 0 0 1 15.875,15.875 15.875,15.875 0 0 1 -15.875,15.875 15.875,15.875 0 0 1 -15.875,-15.875 15.875,15.875 0 0 1 15.875,-15.875 z" />
    <g
       id="g19"
       style="fill:#ffffff">
      <path
         id="rect15"
         style="fill:#ffffff;fill-opacity:1;stroke:none;stroke-width:1.38328;stroke-dasharray:none;stroke-opacity:1"
         d="m 53.091849,55.230219 c -1.123127,0 -2.027267,0.90414 -2.027267,2.027267 v 17.6413 c 0,1.123126 0.90414,2.027266 2.027267,2.027266 h 12.8788 c 1.123126,0 2.027266,-0.90414 2.027266,-2.027266 V 60.166352 h -3.288688 c -1.123126,0 -2.027266,-0.904657 -2.027266,-2.027783 v -2.90835 z m 6.4394,4.484998 a 3.175,3.175 0 0 1 3.175,3.175 3.175,3.175 0 0 1 -3.175,3.175 3.175,3.175 0 0 1 -3.175,-3.175 3.175,3.175 0 0 1 3.175,-3.175 z m 0,7.033162 c 2.052108,0 3.704166,1.837956 3.704166,4.121196 v 3.950663 h -7.408333 v -3.950663 c 0,-2.28324 1.652059,-4.121196 3.704167,-4.121196 z" />
      <path
         id="rect16"
         style="fill:#ffffff;fill-opacity:1;stroke:none;stroke-width:1.38328;stroke-dasharray:none;stroke-opacity:1"
         d="m 63.220429,55.332022 v 2.331641 c 0,1.123126 0.90414,2.027266 2.027267,2.027266 h 2.621028 z" />
    </g>
  </g>
</svg>
